<?xml version='1.0' encoding='UTF-8' standalone='no'?>
<!-- Created with Fritzing (http://www.fritzing.org/) -->
<svg xmlns:svg='http://www.w3.org/2000/svg' xmlns='http://www.w3.org/2000/svg' version='1.2' baseProfile='tiny' x='0in' y='0in' width='4.20498in' height='2.35832in' viewBox='0 0 302.758 169.799' >
<g partID='854101880'><g transform='translate(71.5118,0)' ><g transform="matrix(1, 0, 0, 1, 15.5047, 20.5502)">
<g id="breadboard">
<g transform="matrix(1, 0, 0, 1, -85.3233, -79.5581)">
<g id="g5474" style="opacity:1"/>
</g>
<rect id="rect4136" stroke-width="0.2" fill-opacity="1" y="-10.0612" style="opacity:1;stroke-miterlimit:4;stroke-dasharray:none" fill="#dcdcdc" rx="1.70079" ry="1.70079" x="-15.5047" height="19.2756" width="33.5055" stroke="none"/>
<path id="path4286" stroke-width="0.2" d="m15.4208,-11.2666,-28.3453,0,0,1.20469,28.3453,0,0,-1.20469z" fill-opacity="1" style="opacity:1;stroke-miterlimit:4;stroke-dasharray:none" fill="#b7b7b7" stroke="none"/>
<path id="path4284" stroke-width="0.2" d="m15.4208,-13.6759,-28.3453,0,0,2.40938,28.3453,0,0,-2.40938z" fill-opacity="1" style="opacity:1;stroke-miterlimit:4;stroke-dasharray:none" fill="#d3d3d3" stroke="none"/>
<path id="rect4140" stroke-width="0.2" d="m-12.9245,-14.8806,0,1.20469,28.3453,0,0,-1.20469,-28.3453,0z" fill-opacity="1" style="opacity:1;stroke-miterlimit:4;stroke-dasharray:none" fill="#dddddd" stroke="none"/>
<g id="connector0terminal" stroke-width="0.2" fill-opacity="1" y="-6.00763" style="opacity:1;stroke-miterlimit:4;stroke-dasharray:none" fill="#9a916c" rx="0.283465" ry="0.283465" x="-11.5929" height="3.2315" width="3.2315" stroke="none"/>
<rect id="connector0pin" stroke-width="0.2" fill-opacity="1" style="opacity:1;stroke-miterlimit:4;stroke-dasharray:none" y="-6.00763" fill="#9a916c" rx="0.283465" ry="0.283465" height="3.2315" x="-11.5929" width="3.2315" stroke="none"/>
<g transform="matrix(1, 0, 0, 1, -84.0761, -83.9509)">
<g id="g4830" style="opacity:1">
<rect id="rect4154" stroke-width="0.2" fill-opacity="1" y="78.7503" style="opacity:0.95;stroke-miterlimit:4;stroke-dasharray:none" fill="#8c8663" rx="0.283465" ry="0.283465" x="73.2903" height="1.61575" width="1.61575" stroke="none"/>
<path id="path4217" stroke-width="0.2" d="m75.5716,81.0324,-0.807813,-0.807808c-0.05104,0.0512,-0.06232,0.142184,-0.140625,0.142184l-1.04844,0c-0.07852,0,-0.090724,-0.09072,-0.142187,-0.142184l-0.807813,0.807808c0.051496,0.05136,0.063448,0.142192,0.142188,0.142192l2.66406,0c0.07852,0,0.089552,-0.091112,0.140625,-0.142192z" fill-opacity="1" style="opacity:0.95;stroke-miterlimit:4;stroke-dasharray:none" fill="#5e5b43" stroke="none"/>
<path id="path4222" stroke-width="0.2" d="m74.7654,78.8917c0.051072,0.05104,0.140625,0.06368,0.140625,0.142192l0,1.04843c0,0.07872,-0.0908664,0.090696,-0.142188,0.142192l0.807813,0.807808c0.051072,-0.05104,0.142187,-0.06208,0.142187,-0.140624l0,-2.66562c0,-0.07856,-0.0911144,-0.089552,-0.142187,-0.140624l-0.80625,0.806248z" fill-opacity="1" style="opacity:0.95;stroke-miterlimit:4;stroke-dasharray:none" fill="#80795b" stroke="none"/>
<path id="path4220" stroke-width="0.2" d="m72.6248,78.0855c-0.051216,0.05104,-0.142187,0.06232,-0.142187,0.140624l0,2.66562c0,0.07832,0.0909728,0.089584,0.142187,0.140624l0.807813,-0.807808c-0.051464,-0.05144,-0.142188,-0.06368,-0.142187,-0.142192l0,-1.04843c0,-0.07832,0.0909728,-0.089584,0.142187,-0.140624l-0.807813,-0.807816z" fill-opacity="1" style="opacity:0.95;stroke-miterlimit:4;stroke-dasharray:none" fill="#9a916c" stroke="none"/>
<path id="rect4159" stroke-width="0.2" d="m72.6248,78.0855,0.807813,0.807816c0.051496,-0.05136,0.063448,-0.142192,0.142187,-0.142192l1.04844,0c0.07852,0,0.0911144,0.089552,0.142188,0.140624l0.80625,-0.806248c-0.051072,-0.05104,-0.062104,-0.142184,-0.140625,-0.142184l-2.66406,0c-0.078736,0,-0.0906912,0.090864,-0.142188,0.142184z" fill-opacity="1" style="opacity:0.95;stroke-miterlimit:4;stroke-dasharray:none" fill="#b8af82" stroke="none"/>
</g>
</g>
<g id="connector1terminal" stroke-width="0.2" fill-opacity="1" style="opacity:1;stroke-miterlimit:4;stroke-dasharray:none" y="-6.00763" fill="#9a916c" rx="0.283465" ry="0.283465" height="3.2315" x="-0.367662" width="3.2315" stroke="none"/>
<rect id="connector1pin" stroke-width="0.2" fill-opacity="1" y="-6.00763" style="opacity:1;stroke-miterlimit:4;stroke-dasharray:none" fill="#9a916c" rx="0.283465" ry="0.283465" x="-0.367662" height="3.2315" width="3.2315" stroke="none"/>
<g transform="matrix(1, 0, 0, 1, -84.0763, -83.9509)">
<g id="g4843" style="opacity:1">
<rect id="rect5450" stroke-width="0.2" fill-opacity="1" style="opacity:0.95;stroke-miterlimit:4;stroke-dasharray:none" y="78.7503" fill="#8c8663" rx="0.283465" ry="0.283465" height="1.61575" x="84.5155" width="1.61575" stroke="none"/>
<path id="path5452" stroke-width="0.2" d="m86.7968,81.0324,-0.807808,-0.807808c-0.05104,0.0512,-0.06232,0.142184,-0.140624,0.142184l-1.04844,0c-0.07856,0,-0.090728,-0.09072,-0.142192,-0.142184l-0.807808,0.807808c0.05152,0.05136,0.06344,0.142192,0.142184,0.142192l2.66406,0c0.07856,0,0.089552,-0.091112,0.140624,-0.142192z" fill-opacity="1" style="opacity:0.95;stroke-miterlimit:4;stroke-dasharray:none" fill="#5e5b43" stroke="none"/>
<path id="path5454" stroke-width="0.2" d="m85.9906,78.8917c0.05104,0.05104,0.140624,0.06368,0.140624,0.142192l0,1.04843c0,0.07872,-0.090864,0.090696,-0.142184,0.142192l0.807808,0.807808c0.05104,-0.05104,0.142192,-0.06208,0.142192,-0.140624l0,-2.66562c0,-0.07856,-0.09112,-0.089552,-0.142192,-0.140624l-0.806248,0.806248z" fill-opacity="1" style="opacity:0.95;stroke-miterlimit:4;stroke-dasharray:none" fill="#80795b" stroke="none"/>
<path id="path5456" stroke-width="0.2" d="m83.85,78.0855c-0.0512,0.05104,-0.142192,0.06232,-0.142192,0.140624l0,2.66562c0,0.07832,0.090976,0.089584,0.142192,0.140624l0.807808,-0.807808c-0.05144,-0.05144,-0.142184,-0.06368,-0.142184,-0.142192l0,-1.04843c0,-0.07832,0.090976,-0.089584,0.142184,-0.140624l-0.807808,-0.807816z" fill-opacity="1" style="opacity:0.95;stroke-miterlimit:4;stroke-dasharray:none" fill="#9a916c" stroke="none"/>
<path id="path5458" stroke-width="0.2" d="m83.85,78.0855,0.807808,0.807816c0.05152,-0.05136,0.06344,-0.142192,0.142192,-0.142192l1.04843,0c0.07848,0,0.09112,0.089552,0.142192,0.140624l0.806248,-0.806248c-0.05104,-0.05104,-0.06208,-0.142184,-0.140624,-0.142184l-2.66406,0c-0.07872,0,-0.090688,0.090864,-0.142184,0.142184z" fill-opacity="1" style="opacity:0.95;stroke-miterlimit:4;stroke-dasharray:none" fill="#b8af82" stroke="none"/>
</g>
</g>
<g id="connector2terminal" stroke-width="0.2" fill-opacity="1" y="-6.00854" style="opacity:1;stroke-miterlimit:4;stroke-dasharray:none" fill="#9a916c" rx="0.283465" ry="0.283465" x="10.8567" height="3.2315" width="3.2315" stroke="none"/>
<rect id="connector2pin" stroke-width="0.2" fill-opacity="1" style="opacity:1;stroke-miterlimit:4;stroke-dasharray:none" y="-6.00854" fill="#9a916c" rx="0.283465" ry="0.283465" height="3.2315" x="10.8567" width="3.2315" stroke="none"/>
<g transform="matrix(1, 0, 0, 1, -84.0761, -83.9509)">
<g id="g4856" style="opacity:1">
<rect id="rect5464" stroke-width="0.2" fill-opacity="1" y="78.7494" style="opacity:0.95;stroke-miterlimit:4;stroke-dasharray:none" fill="#8c8663" rx="0.283465" ry="0.283465" x="95.7398" height="1.61575" width="1.61575" stroke="none"/>
<path id="path5466" stroke-width="0.2" d="m98.0212,81.0314,-0.807816,-0.807808c-0.05104,0.0512,-0.06232,0.142184,-0.140624,0.142184l-1.04844,0c-0.07856,0,-0.09072,-0.09072,-0.142184,-0.142184l-0.807816,0.807808c0.05152,0.05136,0.06344,0.142192,0.142192,0.142192l2.66406,0c0.07856,0,0.089552,-0.091112,0.140624,-0.142192z" fill-opacity="1" style="opacity:0.95;stroke-miterlimit:4;stroke-dasharray:none" fill="#5e5b43" stroke="none"/>
<path id="path5468" stroke-width="0.2" d="m97.215,78.8908c0.05104,0.05104,0.140624,0.06368,0.140624,0.142192l0,1.04843c0,0.07872,-0.090872,0.090696,-0.142192,0.142192l0.807816,0.807808c0.05104,-0.05104,0.142184,-0.06208,0.142184,-0.140624l0,-2.66562c0,-0.07856,-0.091112,-0.089552,-0.142184,-0.140624l-0.806248,0.806248z" fill-opacity="1" style="opacity:0.95;stroke-miterlimit:4;stroke-dasharray:none" fill="#80795b" stroke="none"/>
<path id="path5470" stroke-width="0.2" d="m95.0743,78.0846c-0.0512,0.05104,-0.142184,0.06232,-0.142184,0.140624l0,2.66562c0,0.07832,0.090968,0.089584,0.142184,0.140624l0.807816,-0.807808c-0.05144,-0.05144,-0.142192,-0.06368,-0.142192,-0.142192l0,-1.04843c0,-0.07832,0.090976,-0.089584,0.142192,-0.140624l-0.807816,-0.807816z" fill-opacity="1" style="opacity:0.95;stroke-miterlimit:4;stroke-dasharray:none" fill="#9a916c" stroke="none"/>
<path id="path5472" stroke-width="0.2" d="m95.0743,78.0846,0.807816,0.807816c0.05152,-0.05136,0.06344,-0.142192,0.142184,-0.142192l1.04844,0c0.07848,0,0.091112,0.089552,0.142184,0.140624l0.806256,-0.806248c-0.05104,-0.05104,-0.06208,-0.142184,-0.140624,-0.142184l-2.66406,0c-0.07872,0,-0.090696,0.090864,-0.142192,0.142184z" fill-opacity="1" style="opacity:0.95;stroke-miterlimit:4;stroke-dasharray:none" fill="#b8af82" stroke="none"/>
</g>
</g>
</g>
</g>
</g></g><g partID='854101850'><g transform='translate(110.913,25.2012)' ><g transform="matrix(1, 0, 0, 1, 15.5047, 20.5506)">
<g id="breadboard">
<path id="bottomface" stroke-width="1.41732" d="m-15.5047,-13.6766,0,11.6938,0,6.37812c0,0.942236,0.759326,1.7,1.70156,1.7l30.1031,0c0.942237,0,1.70156,-0.757764,1.70156,-1.7l0,-6.37812,0,-6.37813,0,-5.31562,-2.58125,0,0,3.61406,-28.3453,0,0,-3.61406,-2.57969,0z" fill-opacity="1" style="opacity:1;stroke-miterlimit:4;stroke-dasharray:none;" fill="#cfcfcf" stroke-opacity="0.95294118" stroke="none"/>
<g id="connector0terminal" stroke-width="0.2" fill-opacity="1" y="-6.00827" style="opacity:1;stroke-miterlimit:4;stroke-dasharray:none" fill="#9a916c" rx="0.283465" ry="0.283465" x="-11.5929" height="3.2315" width="3.2315" stroke="none"/>
<rect id="connector0pin" stroke-width="0.2" fill-opacity="1" style="opacity:1;stroke-miterlimit:4;stroke-dasharray:none" y="-6.00827" fill="#9a916c" rx="0.283465" ry="0.283465" height="3.2315" x="-11.5929" width="3.2315" stroke="none"/>
<g id="connector1terminal" stroke-width="0.2" fill-opacity="1" style="opacity:1;stroke-miterlimit:4;stroke-dasharray:none" y="-6.00827" fill="#9a916c" rx="0.283465" ry="0.283465" height="3.2315" x="-0.367665" width="3.2315" stroke="none"/>
<rect id="connector1pin" stroke-width="0.2" fill-opacity="1" y="-6.00827" style="opacity:1;stroke-miterlimit:4;stroke-dasharray:none" fill="#9a916c" rx="0.283465" ry="0.283465" x="-0.367665" height="3.2315" width="3.2315" stroke="none"/>
<rect id="connector2pin" stroke-width="0.2" fill-opacity="1" style="opacity:1;stroke-miterlimit:4;stroke-dasharray:none" y="-6.00918" fill="#9a916c" rx="0.283465" ry="0.283465" height="3.2315" x="10.8567" width="3.2315" stroke="none"/>
<g id="connector2terminal" stroke-width="0.2" fill-opacity="1" y="-6.00918" style="opacity:1;stroke-miterlimit:4;stroke-dasharray:none" fill="#9a916c" rx="0.283465" ry="0.283465" x="10.8567" height="3.2315" width="3.2315" stroke="none"/>
<rect id="insideface" stroke-width="1.41732" fill-opacity="1" y="-10.0618" style="opacity:1;stroke-miterlimit:4;stroke-dasharray:none;" fill="#666666" rx="1.70079" stroke-opacity="0.95294118" ry="1.70079" x="-15.5047" height="16.1575" width="33.5055" stroke="none"/>
<path id="topface" stroke-width="1.41732" d="m-13.8031,-10.0625c-0.942236,0,-1.70156,0.759326,-1.70156,1.70156l0,12.7563c0,0.752707,0.487406,1.38105,1.1625,1.60625l0,1.51094c0,0.942235,0.757764,1.70156,1.7,1.70156l27.7797,0c0.942237,0,1.70156,-0.759327,1.70156,-1.70156l0,-1.51094c0.675094,-0.225199,1.1625,-0.853543,1.1625,-1.60625l0,-12.7563c0,-0.942236,-0.759326,-1.70156,-1.70156,-1.70156l-30.1031,0zm0,2.26875,8.9,0,0,11.6219,-2.32344,0,0,1.13438,-4.25312,0,0,-1.13438,-2.32344,0,0,-11.6219zm10.6016,0,8.9,0,0,11.6219,-2.32344,0,0,1.13438,-4.25312,0,0,-1.13438,-2.32344,0,0,-11.6219zm10.6016,0,8.9,0,0,11.6219,-2.32344,0,0,1.13438,-4.25312,0,0,-1.13438,-2.32344,0,0,-11.6219z" fill-opacity="1" style="opacity:1;stroke-miterlimit:4;stroke-dasharray:none;" fill="#e4e4e4" stroke-opacity="0.95294118" stroke="none"/>
<rect id="connector3pin" stroke-width="0.2" fill-opacity="1" y="-2.40918" style="opacity:1;stroke-miterlimit:4;stroke-dasharray:none" fill="#9a916c" rx="0.283465" ry="0.283465" x="-10.9689" height="3.2315" width="3.2315" stroke="none"/>
<g id="connector3terminal" stroke-width="0.2" fill-opacity="1" style="opacity:1;stroke-miterlimit:4;stroke-dasharray:none" y="-2.40918" fill="#9a916c" rx="0.283465" ry="0.283465" height="3.2315" x="-10.9689" width="3.2315" stroke="none"/>
<rect id="connector4pin" stroke-width="0.2" fill-opacity="1" style="opacity:1;stroke-miterlimit:4;stroke-dasharray:none" y="-2.40918" fill="#9a916c" rx="0.283465" ry="0.283465" height="3.2315" x="-0.367299" width="3.2315" stroke="none"/>
<g id="connector4terminal" stroke-width="0.2" fill-opacity="1" y="-2.40918" style="opacity:1;stroke-miterlimit:4;stroke-dasharray:none" fill="#9a916c" rx="0.283465" ry="0.283465" x="-0.367299" height="3.2315" width="3.2315" stroke="none"/>
<rect id="connector5pin" stroke-width="0.2" fill-opacity="1" style="opacity:1;stroke-miterlimit:4;stroke-dasharray:none" y="-2.40918" fill="#9a916c" rx="0.283465" ry="0.283465" height="3.2315" x="10.2343" width="3.2315" stroke="none"/>
<g id="connector5terminal" stroke-width="0.2" fill-opacity="1" y="-2.40918" style="opacity:1;stroke-miterlimit:4;stroke-dasharray:none" fill="#9a916c" rx="0.283465" ry="0.283465" x="10.2343" height="3.2315" width="3.2315" stroke="none"/>
<g transform="matrix(1, 0, 0, 1, 1.24724, -4.39343)">
<g id="retainingclip" style="opacity:1">
<rect id="rect4806" stroke-width="1.41732" fill-opacity="1" style="stroke-miterlimit:4;stroke-dasharray:none;" y="-16.1571" fill="#e7e7e7" stroke-opacity="0.95294118" height="5.66929" x="-11.1393" width="22.2803" stroke="none"/>
<rect id="rect4808" stroke-width="1.41732" fill-opacity="1" style="stroke-miterlimit:4;stroke-dasharray:none;" y="-10.4878" fill="#dbdbdb" stroke-opacity="0.95294118" height="4.81875" x="-11.1393" width="3.40158" stroke="none"/>
<rect id="rect4810" stroke-width="1.41732" fill-opacity="1" y="-10.4878" style="stroke-miterlimit:4;stroke-dasharray:none;" fill="#dbdbdb" stroke-opacity="0.95294118" x="7.73946" height="4.81875" width="3.40158" stroke="none"/>
<rect id="rect4812" stroke-width="1.41732" fill-opacity="1" y="-6.63287" style="stroke-miterlimit:4;stroke-dasharray:none;" fill="#e2e2e2" stroke-opacity="0.95294118" x="-11.1393" height="0.96378" width="3.40158" stroke="none"/>
<rect id="rect4814" stroke-width="1.41732" fill-opacity="1" style="stroke-miterlimit:4;stroke-dasharray:none;" y="-6.63287" fill="#e2e2e2" stroke-opacity="0.95294118" height="0.96378" x="7.73946" width="3.40158" stroke="none"/>
</g>
</g>
<g transform="matrix(1, 0, 0, 1, 25.7669, -8.13689)">
<g id="g4862" style="opacity:1">
<rect id="rect4854" stroke-width="1.41732" fill-opacity="1" y="0.768233" style="stroke-miterlimit:4;stroke-dasharray:none;" fill="#9d855f" rx="1.70078" stroke-opacity="0.95294118" ry="1.70078" x="-39.372" height="10.7717" width="8.50394" stroke="none"/>
<rect id="rect4856" stroke-width="1.41732" fill-opacity="1" y="1.44843" style="stroke-miterlimit:4;stroke-dasharray:none;" fill="#584932" rx="1.0627" stroke-opacity="0.95294118" x="-38.3659" height="9.41127" width="6.49172" stroke="none"/>
<rect id="rect4858" stroke-width="1.41732" fill-opacity="1" style="stroke-miterlimit:4;stroke-dasharray:none;" y="5.12461" fill="#ca9a55" rx="1.70078" stroke-opacity="0.95294118" ry="1.01294" height="6.41528" x="-39.372" width="8.50394" stroke="none"/>
<rect id="rect4860" stroke-width="1.41732" fill-opacity="1" style="stroke-miterlimit:4;stroke-dasharray:none;" y="5.97943" fill="#514120" rx="1.0627" stroke-opacity="0.95294118" height="4.70563" x="-38.3659" width="6.49172" stroke="none"/>
<rect id="rect4892" stroke-width="1.41732" fill-opacity="1" y="1.44843" style="stroke-miterlimit:4;stroke-dasharray:none;" fill="#514120" rx="1.0627" stroke-opacity="0.95294118" ry="1.0627" x="-38.3659" height="3.67618" width="6.49172" stroke="none"/>
<rect id="rect4888" stroke-width="1.41732" fill-opacity="1" y="2.65785" style="stroke-miterlimit:4;stroke-dasharray:none;" fill="#b4a57a" rx="0.566929" stroke-opacity="0.95294118" ry="0.566929" x="-37.6016" height="1.25734" width="4.96317" stroke="none"/>
</g>
</g>
<g transform="matrix(1, 0, 0, 1, 46.97, -8.13689)">
<g id="g5363" style="opacity:1">
<rect id="rect5365" stroke-width="1.41732" fill-opacity="1" y="0.768233" style="stroke-miterlimit:4;stroke-dasharray:none;" fill="#9d855f" rx="1.70078" stroke-opacity="0.95294118" ry="1.70078" x="-39.372" height="10.7717" width="8.50394" stroke="none"/>
<rect id="rect5367" stroke-width="1.41732" fill-opacity="1" y="1.44843" style="stroke-miterlimit:4;stroke-dasharray:none;" fill="#584932" rx="1.0627" stroke-opacity="0.95294118" x="-38.3659" height="9.41127" width="6.49172" stroke="none"/>
<rect id="rect5369" stroke-width="1.41732" fill-opacity="1" style="stroke-miterlimit:4;stroke-dasharray:none;" y="5.12461" fill="#ca9a55" rx="1.70078" stroke-opacity="0.95294118" ry="1.01294" height="6.41528" x="-39.372" width="8.50394" stroke="none"/>
<rect id="rect5371" stroke-width="1.41732" fill-opacity="1" style="stroke-miterlimit:4;stroke-dasharray:none;" y="5.97943" fill="#514120" rx="1.0627" stroke-opacity="0.95294118" height="4.70563" x="-38.3659" width="6.49172" stroke="none"/>
<rect id="rect5373" stroke-width="1.41732" fill-opacity="1" y="1.44843" style="stroke-miterlimit:4;stroke-dasharray:none;" fill="#514120" rx="1.0627" stroke-opacity="0.95294118" ry="1.0627" x="-38.3659" height="3.67618" width="6.49172" stroke="none"/>
<rect id="rect5375" stroke-width="1.41732" fill-opacity="1" y="2.65785" style="stroke-miterlimit:4;stroke-dasharray:none;" fill="#b4a57a" rx="0.566929" stroke-opacity="0.95294118" ry="0.566929" x="-37.6016" height="1.25734" width="4.96317" stroke="none"/>
</g>
</g>
<g transform="matrix(1, 0, 0, 1, 36.3685, -8.13689)">
<g id="g5349" style="opacity:1">
<rect id="rect5351" stroke-width="1.41732" fill-opacity="1" style="stroke-miterlimit:4;stroke-dasharray:none;" y="0.768233" fill="#9d855f" rx="1.70078" stroke-opacity="0.95294118" ry="1.70078" height="10.7717" x="-39.372" width="8.50394" stroke="none"/>
<rect id="rect5353" stroke-width="1.41732" fill-opacity="1" style="stroke-miterlimit:4;stroke-dasharray:none;" y="1.44843" fill="#584932" rx="1.0627" stroke-opacity="0.95294118" height="9.41127" x="-38.3659" width="6.49172" stroke="none"/>
<rect id="rect5355" stroke-width="1.41732" fill-opacity="1" y="5.12461" style="stroke-miterlimit:4;stroke-dasharray:none;" fill="#ca9a55" rx="1.70078" stroke-opacity="0.95294118" ry="1.01294" x="-39.372" height="6.41528" width="8.50394" stroke="none"/>
<rect id="rect5357" stroke-width="1.41732" fill-opacity="1" y="5.97943" style="stroke-miterlimit:4;stroke-dasharray:none;" fill="#514120" rx="1.0627" stroke-opacity="0.95294118" x="-38.3659" height="4.70563" width="6.49172" stroke="none"/>
<rect id="rect5359" stroke-width="1.41732" fill-opacity="1" style="stroke-miterlimit:4;stroke-dasharray:none;" y="1.44843" fill="#514120" rx="1.0627" stroke-opacity="0.95294118" ry="1.0627" height="3.67618" x="-38.3659" width="6.49172" stroke="none"/>
<rect id="rect5361" stroke-width="1.41732" fill-opacity="1" style="stroke-miterlimit:4;stroke-dasharray:none;" y="2.65785" fill="#b4a57a" rx="0.566929" stroke-opacity="0.95294118" ry="0.566929" height="1.25734" x="-37.6016" width="4.96317" stroke="none"/>
</g>
</g>
</g>
</g>
</g></g><g partID='854102050'><line stroke-linecap='round' stroke='#666666' x1='99.489' y1='16.1574' x2='138.89' y2='41.3583' stroke-width='3.2' /><line stroke-linecap='round' stroke='#999999' x1='99.489' y1='16.1574' x2='138.89' y2='41.3583' stroke-width='1.6' /></g><g partID='854101910'><line stroke-linecap='round' stroke='#666666' x1='77.0394' y1='16.1583' x2='116.441' y2='41.3592' stroke-width='3.2' /><line stroke-linecap='round' stroke='#999999' x1='77.0394' y1='16.1583' x2='116.441' y2='41.3592' stroke-width='1.6' /></g><g partID='854101980'><line stroke-linecap='round' stroke='#666666' x1='88.2646' y1='16.1583' x2='127.666' y2='41.3592' stroke-width='3.2' /><line stroke-linecap='round' stroke='#999999' x1='88.2646' y1='16.1583' x2='127.666' y2='41.3592' stroke-width='1.6' /></g><g partID='854107980'><line stroke-linecap='round' stroke='#d6d63a' x1='124.264' y1='73.7583' x2='117.065' y2='44.9583' stroke-width='3.2' /><line stroke-linecap='round' stroke='#fff800' x1='124.264' y1='73.7583' x2='117.065' y2='44.9583' stroke-width='1.6' /></g><g partID='854108050'><line stroke-linecap='round' stroke='#000000' x1='131.464' y1='73.7583' x2='127.666' y2='44.9583' stroke-width='3.2' /><line stroke-linecap='round' stroke='#404040' x1='131.464' y1='73.7583' x2='127.666' y2='44.9583' stroke-width='1.6' /></g><g partID='854108120'><line stroke-linecap='round' stroke='#8c0000' x1='138.664' y1='73.7583' x2='138.268' y2='44.9583' stroke-width='3.2' /><line stroke-linecap='round' stroke='#cc1414' x1='138.664' y1='73.7583' x2='138.268' y2='44.9583' stroke-width='1.6' /></g><g partID='854114920'><g transform='translate(102.678,132.881)' ><g xmlns="http://www.w3.org/2000/svg" id="breadboard" gorn="0.0">
 <circle xmlns="http://www.w3.org/2000/svg" id="connector1pin" stroke-width="0.4318" r="1.148" fill="none" cy="20.076" gorn="0.0.0" stroke="#9A916C" cx="14.387"/>
 <circle xmlns="http://www.w3.org/2000/svg" id="connector3pin" stroke-width="0.4318" r="1.148" fill="none" cy="20.076" gorn="0.0.1" stroke="#9A916C" cx="21.587"/>
 <circle xmlns="http://www.w3.org/2000/svg" id="connector5pin" stroke-width="0.4318" r="1.148" fill="none" cy="20.077" gorn="0.0.2" stroke="#9A916C" cx="28.787"/>
 <circle xmlns="http://www.w3.org/2000/svg" id="connector7pin" stroke-width="0.4318" r="1.148" fill="none" cy="20.076" gorn="0.0.3" stroke="#9A916C" cx="35.989"/>
 <circle xmlns="http://www.w3.org/2000/svg" id="connector9pin" stroke-width="0.4318" r="1.148" fill="none" cy="20.076" gorn="0.0.4" stroke="#9A916C" cx="43.188"/>
 <circle xmlns="http://www.w3.org/2000/svg" id="connector0pin" stroke-width="0.4318" r="1.148" fill="none" cy="27.277" gorn="0.0.5" stroke="#9A916C" cx="14.387"/>
 <circle xmlns="http://www.w3.org/2000/svg" id="connector2pin" stroke-width="0.4318" r="1.148" fill="none" cy="27.277" gorn="0.0.6" stroke="#9A916C" cx="21.587"/>
 <circle xmlns="http://www.w3.org/2000/svg" id="connector4pin" stroke-width="0.4318" r="1.148" fill="none" cy="27.277" gorn="0.0.7" stroke="#9A916C" cx="28.787"/>
 <circle xmlns="http://www.w3.org/2000/svg" id="connector6pin" stroke-width="0.4318" r="1.148" fill="none" cy="27.277" gorn="0.0.8" stroke="#9A916C" cx="35.989"/>
 <circle xmlns="http://www.w3.org/2000/svg" id="connector8pin" stroke-width="0.4318" r="1.148" fill="none" cy="27.277" gorn="0.0.9" stroke="#9A916C" cx="43.188"/>
 <rect xmlns="http://www.w3.org/2000/svg" id="bgnd" fill="#1A1A1A" gorn="0.0.10" x="0" height="33.877" width="57.601"/>
 <rect xmlns="http://www.w3.org/2000/svg" id="bgnd_1_" y="14.498" fill="#262626" gorn="0.0.11" x="0" height="19.379" width="57.601"/>
 <rect xmlns="http://www.w3.org/2000/svg" id="lower_connector_bgnd_2_" y="25.313" fill="#141414" gorn="0.0.12" x="26.9" height="3.803" width="3.802"/>
 <rect xmlns="http://www.w3.org/2000/svg" id="upper_connector_bgnd" y="18.114" fill="#141414" gorn="0.0.13" x="12.5" height="3.799" width="3.799"/>
 <rect xmlns="http://www.w3.org/2000/svg" id="upper_connector_bgnd_1_" y="18.114" fill="#141414" gorn="0.0.14" x="19.699" height="3.799" width="3.799"/>
 <rect xmlns="http://www.w3.org/2000/svg" id="upper_connector_bgnd_2_" y="18.114" fill="#141414" gorn="0.0.15" x="26.9" height="3.799" width="3.802"/>
 <rect xmlns="http://www.w3.org/2000/svg" id="upper_connector_bgnd_3_" y="18.114" fill="#141414" gorn="0.0.16" x="34.099" height="3.799" width="3.799"/>
 <rect xmlns="http://www.w3.org/2000/svg" id="lower_connector_bgnd" y="25.313" fill="#141414" gorn="0.0.17" x="12.5" height="3.803" width="3.799"/>
 <rect xmlns="http://www.w3.org/2000/svg" id="lower_connector_bgnd_1_" y="25.313" fill="#141414" gorn="0.0.18" x="19.699" height="3.803" width="3.799"/>
 <rect xmlns="http://www.w3.org/2000/svg" id="lower_connector_bgnd_3_" y="25.313" fill="#141414" gorn="0.0.19" x="34.099" height="3.803" width="3.799"/>
 <rect xmlns="http://www.w3.org/2000/svg" id="lower_connector_bgnd_4_" y="25.313" fill="#141414" gorn="0.0.20" x="41.298" height="3.803" width="3.802"/>
 <rect xmlns="http://www.w3.org/2000/svg" id="upper_connector_bgnd_4_" y="18.114" fill="#141414" gorn="0.0.21" x="41.298" height="3.799" width="3.802"/>
 <g xmlns="http://www.w3.org/2000/svg">
  <polyline xmlns="http://www.w3.org/2000/svg" id="upper_connector_bottom_inset_9_" points="15.548,9.402,15.548,20.014,13.25,20.014,13.25,9.402" fill="#474432" gorn="0.0.22.0"/>
  <polyline xmlns="http://www.w3.org/2000/svg" id="upper_connector_bottom_inset_8_" points="22.748,9.402,22.748,20.014,20.449,20.014,20.449,9.402" fill="#474432" gorn="0.0.22.1"/>
  <polyline xmlns="http://www.w3.org/2000/svg" id="upper_connector_bottom_inset_7_" points="29.949,9.402,29.949,20.014,27.65,20.014,27.65,9.402" fill="#474432" gorn="0.0.22.2"/>
  <polyline xmlns="http://www.w3.org/2000/svg" id="upper_connector_bottom_inset_6_" points="37.148,9.402,37.148,20.014,34.849,20.014,34.849,9.402" fill="#474432" gorn="0.0.22.3"/>
  <polyline xmlns="http://www.w3.org/2000/svg" id="upper_connector_bottom_inset_5_" points="44.349,9.402,44.349,20.014,42.048,20.014,42.048,9.402" fill="#474432" gorn="0.0.22.4"/>
  <polyline xmlns="http://www.w3.org/2000/svg" id="lower_connector_bottom_inset_9_" points="15.548,16.602,15.548,27.213,13.25,27.213,13.25,16.602" fill="#474432" gorn="0.0.22.5"/>
  <polyline xmlns="http://www.w3.org/2000/svg" id="lower_connector_bottom_inset_8_" points="22.748,16.602,22.748,27.213,20.449,27.213,20.449,16.602" fill="#474432" gorn="0.0.22.6"/>
  <polyline xmlns="http://www.w3.org/2000/svg" id="lower_connector_bottom_inset_7_" points="29.949,16.602,29.949,28.422,27.65,28.422,27.65,16.602" fill="#474432" gorn="0.0.22.7"/>
  <polyline xmlns="http://www.w3.org/2000/svg" id="lower_connector_bottom_inset_6_" points="37.148,16.602,37.148,27.213,34.849,27.213,34.849,16.602" fill="#474432" gorn="0.0.22.8"/>
  <polyline xmlns="http://www.w3.org/2000/svg" id="lower_connector_bottom_inset_5_" points="44.349,16.602,44.349,27.213,42.048,27.213,42.048,16.602" fill="#474432" gorn="0.0.22.9"/>
 </g>
 <g xmlns="http://www.w3.org/2000/svg">
  <rect xmlns="http://www.w3.org/2000/svg" y="22.288" fill="#595959" x="0" height="2.798" width="22.748"/>
  <rect xmlns="http://www.w3.org/2000/svg" y="22.288" fill="#595959" x="34.851" height="2.798" width="22.748"/>
 </g>
 <rect xmlns="http://www.w3.org/2000/svg" id="top_inset" fill="#2A2A29" gorn="0.0.24" x="0" height="2.798" width="57.601"/>
 <path xmlns="http://www.w3.org/2000/svg" id="left_inset" d="M0,0l0,25.086l2.797,-2.798L2.797,2.798L0,0z" fill="#373737" gorn="0.0.25"/>
 <path xmlns="http://www.w3.org/2000/svg" id="right_inset" d="M57.599,0l0,25.086l-2.8,-2.798L54.799,2.798L57.599,0z" fill="#474747" gorn="0.0.26"/>
 <rect xmlns="http://www.w3.org/2000/svg" id="top_border" fill="#404040" gorn="0.0.27" x="0" height="1.798" width="57.601"/>
 <g xmlns="http://www.w3.org/2000/svg">
  <rect xmlns="http://www.w3.org/2000/svg" y="23.288" fill="#404040" x="0" height="1.798" width="22.748"/>
  <rect xmlns="http://www.w3.org/2000/svg" y="23.288" fill="#404040" x="34.851" height="1.798" width="22.748"/>
 </g>
 <rect xmlns="http://www.w3.org/2000/svg" id="left_border" fill="#404040" gorn="0.0.29" x="0" height="25.086" width="1.797"/>
 <rect xmlns="http://www.w3.org/2000/svg" id="right_border" fill="#404040" gorn="0.0.30" x="55.8" height="25.086" width="1.8"/>
 <g xmlns="http://www.w3.org/2000/svg">
  <rect xmlns="http://www.w3.org/2000/svg" id="path10" y="7.66" fill="#8C8663" gorn="0.0.31.0" x="13.25" height="2.299" width="2.299"/>
  <rect xmlns="http://www.w3.org/2000/svg" id="upper_connector_top_inset" y="7.66" fill="#B8AF82" gorn="0.0.31.1" x="13.25" height="0.558" width="2.299"/>
  <rect xmlns="http://www.w3.org/2000/svg" id="upper_connector_bottom_inset" y="9.402" fill="#5E5B43" gorn="0.0.31.2" x="13.25" height="0.558" width="2.299"/>
  <path xmlns="http://www.w3.org/2000/svg" id="upper_connector_left_inset" d="M13.25,7.66l0,2.299l0.56,-0.558L13.81,8.218L13.25,7.66z" fill="#9A916C" gorn="0.0.31.3"/>
  <path xmlns="http://www.w3.org/2000/svg" id="upper_connector_right_inset" d="M15.548,7.66l0,2.299L14.99,9.402L14.99,8.218L15.548,7.66z" fill="#9A916C" gorn="0.0.31.4"/>
  <rect xmlns="http://www.w3.org/2000/svg" id="path9" y="7.66" fill="#8C8663" gorn="0.0.31.5" x="20.449" height="2.299" width="2.299"/>
  <rect xmlns="http://www.w3.org/2000/svg" id="upper_connector_top_inset_1_" y="7.66" fill="#B8AF82" gorn="0.0.31.6" x="20.449" height="0.558" width="2.299"/>
  <rect xmlns="http://www.w3.org/2000/svg" id="upper_connector_bottom_inset_1_" y="9.402" fill="#5E5B43" gorn="0.0.31.7" x="20.449" height="0.558" width="2.299"/>
  <path xmlns="http://www.w3.org/2000/svg" id="upper_connector_left_inset_1_" d="M20.449,7.66l0,2.299l0.559,-0.558L21.008,8.218L20.449,7.66z" fill="#9A916C" gorn="0.0.31.8"/>
  <path xmlns="http://www.w3.org/2000/svg" id="upper_connector_right_inset_1_" d="M22.748,7.66l0,2.299L22.19,9.401L22.19,8.218L22.748,7.66z" fill="#9A916C" gorn="0.0.31.9"/>
  <rect xmlns="http://www.w3.org/2000/svg" id="path8" y="7.66" fill="#8C8663" gorn="0.0.31.10" x="27.65" height="2.299" width="2.302"/>
  <rect xmlns="http://www.w3.org/2000/svg" id="upper_connector_top_inset_2_" y="7.66" fill="#B8AF82" gorn="0.0.31.11" x="27.65" height="0.558" width="2.302"/>
  <rect xmlns="http://www.w3.org/2000/svg" id="upper_connector_bottom_inset_2_" y="9.402" fill="#5E5B43" gorn="0.0.31.12" x="27.65" height="0.558" width="2.302"/>
  <path xmlns="http://www.w3.org/2000/svg" id="upper_connector_left_inset_2_" d="M27.65,7.66l0,2.299l0.56,-0.558L28.21,8.218L27.65,7.66z" fill="#9A916C" gorn="0.0.31.13"/>
  <path xmlns="http://www.w3.org/2000/svg" id="upper_connector_right_inset_2_" d="M29.949,7.66l0,2.299l-0.562,-0.557L29.387,8.218L29.949,7.66z" fill="#9A916C" gorn="0.0.31.14"/>
  <rect xmlns="http://www.w3.org/2000/svg" id="path7" y="7.66" fill="#8C8663" gorn="0.0.31.15" x="34.849" height="2.299" width="2.299"/>
  <rect xmlns="http://www.w3.org/2000/svg" id="upper_connector_top_inset_3_" y="7.66" fill="#B8AF82" gorn="0.0.31.16" x="34.849" height="0.558" width="2.299"/>
  <rect xmlns="http://www.w3.org/2000/svg" id="upper_connector_bottom_inset_3_" y="9.402" fill="#5E5B43" gorn="0.0.31.17" x="34.849" height="0.558" width="2.299"/>
  <path xmlns="http://www.w3.org/2000/svg" id="upper_connector_left_inset_3_" d="M34.849,7.66l0,2.299l0.562,-0.558L35.411,8.218L34.849,7.66z" fill="#9A916C" gorn="0.0.31.18"/>
  <path xmlns="http://www.w3.org/2000/svg" id="upper_connector_right_inset_3_" d="M37.148,7.66l0,2.299l-0.56,-0.558L36.588,8.218L37.148,7.66z" fill="#9A916C" gorn="0.0.31.19"/>
  <rect xmlns="http://www.w3.org/2000/svg" id="path6" y="7.66" fill="#8C8663" gorn="0.0.31.20" x="42.048" height="2.299" width="2.302"/>
  <rect xmlns="http://www.w3.org/2000/svg" id="upper_connector_top_inset_4_" y="7.66" fill="#B8AF82" gorn="0.0.31.21" x="42.048" height="0.558" width="2.302"/>
  <rect xmlns="http://www.w3.org/2000/svg" id="upper_connector_bottom_inset_4_" y="9.402" fill="#5E5B43" gorn="0.0.31.22" x="42.048" height="0.558" width="2.302"/>
  <path xmlns="http://www.w3.org/2000/svg" id="upper_connector_left_inset_4_" d="M42.048,7.66l0,2.299l0.56,-0.558L42.608,8.218L42.048,7.66z" fill="#9A916C" gorn="0.0.31.23"/>
  <path xmlns="http://www.w3.org/2000/svg" id="upper_connector_right_inset_4_" d="M44.349,7.66l0,2.299l-0.56,-0.558L43.789,8.218L44.349,7.66z" fill="#9A916C" gorn="0.0.31.24"/>
  <rect xmlns="http://www.w3.org/2000/svg" id="path5" y="14.86" fill="#8C8663" gorn="0.0.31.25" x="13.25" height="2.3" width="2.299"/>
  <rect xmlns="http://www.w3.org/2000/svg" id="lower_connector_top_inset" y="14.86" fill="#B8AF82" gorn="0.0.31.26" x="13.25" height="0.559" width="2.299"/>
  <rect xmlns="http://www.w3.org/2000/svg" id="lower_connector_bottom_inset" y="16.602" fill="#5E5B43" gorn="0.0.31.27" x="13.25" height="0.558" width="2.299"/>
  <path xmlns="http://www.w3.org/2000/svg" id="lower_connector_left_inset" d="M13.25,14.86l0,2.3l0.56,-0.558l0,-1.184L13.25,14.86z" fill="#9A916C" gorn="0.0.31.28"/>
  <path xmlns="http://www.w3.org/2000/svg" id="lower_connector_right_inset" d="M15.548,14.86l0,2.3l-0.562,-0.558l0,-1.184L15.548,14.86z" fill="#9A916C" gorn="0.0.31.29"/>
  <rect xmlns="http://www.w3.org/2000/svg" id="path4" y="14.86" fill="#8C8663" gorn="0.0.31.30" x="20.449" height="2.3" width="2.299"/>
  <rect xmlns="http://www.w3.org/2000/svg" id="lower_connector_top_inset_1_" y="14.86" fill="#B8AF82" gorn="0.0.31.31" x="20.449" height="0.559" width="2.299"/>
  <rect xmlns="http://www.w3.org/2000/svg" id="lower_connector_bottom_inset_1_" y="16.602" fill="#5E5B43" gorn="0.0.31.32" x="20.449" height="0.558" width="2.299"/>
  <path xmlns="http://www.w3.org/2000/svg" id="lower_connector_left_inset_1_" d="M20.449,14.86l0,2.3l0.559,-0.558l0,-1.184L20.449,14.86z" fill="#9A916C" gorn="0.0.31.33"/>
  <path xmlns="http://www.w3.org/2000/svg" id="lower_connector_right_inset_1_" d="M22.748,14.86l0,2.3l-0.56,-0.558l0,-1.184L22.748,14.86z" fill="#9A916C" gorn="0.0.31.34"/>
  <rect xmlns="http://www.w3.org/2000/svg" id="path3" y="14.86" fill="#8C8663" gorn="0.0.31.35" x="27.65" height="2.3" width="2.302"/>
  <rect xmlns="http://www.w3.org/2000/svg" id="lower_connector_top_inset_2_" y="14.86" fill="#B8AF82" gorn="0.0.31.36" x="27.65" height="0.559" width="2.302"/>
  <rect xmlns="http://www.w3.org/2000/svg" id="lower_connector_bottom_inset_2_" y="16.602" fill="#5E5B43" gorn="0.0.31.37" x="27.65" height="0.558" width="2.302"/>
  <path xmlns="http://www.w3.org/2000/svg" id="lower_connector_left_inset_2_" d="M27.65,14.86l0,2.3l0.56,-0.558l0,-1.184L27.65,14.86z" fill="#9A916C" gorn="0.0.31.38"/>
  <path xmlns="http://www.w3.org/2000/svg" id="lower_connector_right_inset_2_" d="M29.949,14.86l0,2.3l-0.562,-0.558l0,-1.184L29.949,14.86z" fill="#9A916C" gorn="0.0.31.39"/>
  <rect xmlns="http://www.w3.org/2000/svg" id="path2" y="14.86" fill="#8C8663" gorn="0.0.31.40" x="34.849" height="2.3" width="2.299"/>
  <rect xmlns="http://www.w3.org/2000/svg" id="lower_connector_top_inset_3_" y="14.86" fill="#B8AF82" gorn="0.0.31.41" x="34.849" height="0.559" width="2.299"/>
  <rect xmlns="http://www.w3.org/2000/svg" id="lower_connector_bottom_inset_3_" y="16.602" fill="#5E5B43" gorn="0.0.31.42" x="34.849" height="0.558" width="2.299"/>
  <path xmlns="http://www.w3.org/2000/svg" id="lower_connector_left_inset_3_" d="M34.849,14.86l0,2.3l0.562,-0.558l0,-1.184L34.849,14.86z" fill="#9A916C" gorn="0.0.31.43"/>
  <path xmlns="http://www.w3.org/2000/svg" id="lower_connector_right_inset_3_" d="M37.148,14.86l0,2.3l-0.56,-0.558l0,-1.184L37.148,14.86z" fill="#9A916C" gorn="0.0.31.44"/>
  <rect xmlns="http://www.w3.org/2000/svg" id="path" y="14.86" fill="#8C8663" gorn="0.0.31.45" x="42.048" height="2.3" width="2.302"/>
  <rect xmlns="http://www.w3.org/2000/svg" id="lower_connector_top_inset_4_" y="14.86" fill="#B8AF82" gorn="0.0.31.46" x="42.048" height="0.559" width="2.302"/>
  <rect xmlns="http://www.w3.org/2000/svg" id="lower_connector_bottom_inset_4_" y="16.602" fill="#5E5B43" gorn="0.0.31.47" x="42.048" height="0.558" width="2.302"/>
  <path xmlns="http://www.w3.org/2000/svg" id="lower_connector_left_inset_4_" d="M42.048,14.86l0,2.3l0.56,-0.558l0,-1.184L42.048,14.86z" fill="#9A916C" gorn="0.0.31.48"/>
  <path xmlns="http://www.w3.org/2000/svg" id="lower_connector_right_inset_4_" d="M44.349,14.86l0,2.3l-0.56,-0.558l0,-1.184L44.349,14.86z" fill="#9A916C" gorn="0.0.31.49"/>
 </g>
 <polygon xmlns="http://www.w3.org/2000/svg" points="34.851,25.086,34.851,33.043,22.748,33.043,22.748,25.086,0,25.086,0,36.918,57.599,36.918,57.599,25.086" fill="#333333"/>
 <rect xmlns="http://www.w3.org/2000/svg" id="slot_2_" y="30.168" fill="#404040" gorn="0.0.33" x="22.748" height="2.875" width="12.104"/>
</g>
</g></g><g partID='854115250'><g transform='translate(113.467,70.1595)' ><g id="breadboard" xmlns="http://www.w3.org/2000/svg">
<rect xmlns="http://www.w3.org/2000/svg" fill="#404040" height="7.2" width="28.8"/>
<rect id="connector0pin" xmlns="http://www.w3.org/2000/svg" y="2.20843" fill="none" x="2.20843" height="2.78312" width="2.78312"/>
<g id="connector0terminal" xmlns="http://www.w3.org/2000/svg" y="2.47054" fill="none" x="2.51834" height="2.25658" width="2.15829"/>
<rect xmlns="http://www.w3.org/2000/svg" y="2.20843" x="2.20843" height="2.78312" width="2.78312"/>
<polygon xmlns="http://www.w3.org/2000/svg" points="1.18445,1.18445,2.20843,2.20843,4.99156,2.20843,6.01654,1.18445" fill="#2A2A29"/>
<polygon xmlns="http://www.w3.org/2000/svg" points="6.01654,1.18445,4.99156,2.20843,4.99156,4.99156,6.01654,6.01654" fill="#474747"/>
<polygon xmlns="http://www.w3.org/2000/svg" points="6.01654,6.01654,4.99156,4.99156,2.20843,4.99156,1.18445,6.01654" fill="#595959"/>
<polygon xmlns="http://www.w3.org/2000/svg" points="1.18445,6.01654,2.20843,4.99156,2.20843,2.20843,1.18445,1.18445" fill="#373737"/>
<rect id="connector1pin" xmlns="http://www.w3.org/2000/svg" y="2.20843" fill="none" x="9.40846" height="2.78312" width="2.78312"/>
<g id="connector1terminal" xmlns="http://www.w3.org/2000/svg" y="2.47054" fill="none" x="9.71834" height="2.25658" width="2.15829"/>
<rect xmlns="http://www.w3.org/2000/svg" y="2.20843" x="9.40846" height="2.78312" width="2.78312"/>
<polygon xmlns="http://www.w3.org/2000/svg" points="8.38447,1.18445,9.40846,2.20843,12.1915,2.20843,13.2165,1.18445" fill="#2A2A29"/>
<polygon xmlns="http://www.w3.org/2000/svg" points="13.2165,1.18445,12.1915,2.20843,12.1915,4.99156,13.2165,6.01654" fill="#474747"/>
<polygon xmlns="http://www.w3.org/2000/svg" points="13.2165,6.01654,12.1915,4.99156,9.40846,4.99156,8.38447,6.01654" fill="#595959"/>
<polygon xmlns="http://www.w3.org/2000/svg" points="8.38447,6.01654,9.40846,4.99156,9.40846,2.20843,8.38447,1.18445" fill="#373737"/>
<rect id="connector2pin" xmlns="http://www.w3.org/2000/svg" y="2.20843" fill="none" x="16.6085" height="2.78312" width="2.78312"/>
<g id="connector2terminal" xmlns="http://www.w3.org/2000/svg" y="2.47054" fill="none" x="16.9183" height="2.25658" width="2.15829"/>
<rect xmlns="http://www.w3.org/2000/svg" y="2.20843" x="16.6085" height="2.78312" width="2.78312"/>
<polygon xmlns="http://www.w3.org/2000/svg" points="15.5845,1.18445,16.6085,2.20843,19.3915,2.20843,20.4165,1.18445" fill="#2A2A29"/>
<polygon xmlns="http://www.w3.org/2000/svg" points="20.4165,1.18445,19.3915,2.20843,19.3915,4.99156,20.4165,6.01654" fill="#474747"/>
<polygon xmlns="http://www.w3.org/2000/svg" points="20.4165,6.01654,19.3915,4.99156,16.6085,4.99156,15.5845,6.01654" fill="#595959"/>
<polygon xmlns="http://www.w3.org/2000/svg" points="15.5845,6.01654,16.6085,4.99156,16.6085,2.20843,15.5845,1.18445" fill="#373737"/>
<rect id="connector3pin" xmlns="http://www.w3.org/2000/svg" y="2.20843" fill="none" x="23.8085" height="2.78312" width="2.78312"/>
<g id="connector3terminal" xmlns="http://www.w3.org/2000/svg" y="2.47054" fill="none" x="24.1183" height="2.25658" width="2.15829"/>
<rect xmlns="http://www.w3.org/2000/svg" y="2.20843" x="23.8085" height="2.78312" width="2.78312"/>
<polygon xmlns="http://www.w3.org/2000/svg" points="22.7845,1.18445,23.8085,2.20843,26.5915,2.20843,27.6165,1.18445" fill="#2A2A29"/>
<polygon xmlns="http://www.w3.org/2000/svg" points="27.6165,1.18445,26.5915,2.20843,26.5915,4.99156,27.6165,6.01654" fill="#474747"/>
<polygon xmlns="http://www.w3.org/2000/svg" points="27.6165,6.01654,26.5915,4.99156,23.8085,4.99156,22.7845,6.01654" fill="#595959"/>
<polygon xmlns="http://www.w3.org/2000/svg" points="22.7845,6.01654,23.8085,4.99156,23.8085,2.20843,22.7845,1.18445" fill="#373737"/>
</g>
</g></g><g partID='854117750'><g transform='translate(113.467,120.559)' ><g id="breadboard" xmlns="http://www.w3.org/2000/svg">
<rect xmlns="http://www.w3.org/2000/svg" fill="#404040" height="7.2" width="28.8"/>
<rect id="connector0pin" xmlns="http://www.w3.org/2000/svg" y="2.20843" fill="none" x="2.20843" height="2.78312" width="2.78312"/>
<g id="connector0terminal" xmlns="http://www.w3.org/2000/svg" y="2.47054" fill="none" x="2.51834" height="2.25658" width="2.15829"/>
<rect xmlns="http://www.w3.org/2000/svg" y="2.20843" x="2.20843" height="2.78312" width="2.78312"/>
<polygon xmlns="http://www.w3.org/2000/svg" points="1.18445,1.18445,2.20843,2.20843,4.99156,2.20843,6.01654,1.18445" fill="#2A2A29"/>
<polygon xmlns="http://www.w3.org/2000/svg" points="6.01654,1.18445,4.99156,2.20843,4.99156,4.99156,6.01654,6.01654" fill="#474747"/>
<polygon xmlns="http://www.w3.org/2000/svg" points="6.01654,6.01654,4.99156,4.99156,2.20843,4.99156,1.18445,6.01654" fill="#595959"/>
<polygon xmlns="http://www.w3.org/2000/svg" points="1.18445,6.01654,2.20843,4.99156,2.20843,2.20843,1.18445,1.18445" fill="#373737"/>
<rect id="connector1pin" xmlns="http://www.w3.org/2000/svg" y="2.20843" fill="none" x="9.40846" height="2.78312" width="2.78312"/>
<g id="connector1terminal" xmlns="http://www.w3.org/2000/svg" y="2.47054" fill="none" x="9.71834" height="2.25658" width="2.15829"/>
<rect xmlns="http://www.w3.org/2000/svg" y="2.20843" x="9.40846" height="2.78312" width="2.78312"/>
<polygon xmlns="http://www.w3.org/2000/svg" points="8.38447,1.18445,9.40846,2.20843,12.1915,2.20843,13.2165,1.18445" fill="#2A2A29"/>
<polygon xmlns="http://www.w3.org/2000/svg" points="13.2165,1.18445,12.1915,2.20843,12.1915,4.99156,13.2165,6.01654" fill="#474747"/>
<polygon xmlns="http://www.w3.org/2000/svg" points="13.2165,6.01654,12.1915,4.99156,9.40846,4.99156,8.38447,6.01654" fill="#595959"/>
<polygon xmlns="http://www.w3.org/2000/svg" points="8.38447,6.01654,9.40846,4.99156,9.40846,2.20843,8.38447,1.18445" fill="#373737"/>
<rect id="connector2pin" xmlns="http://www.w3.org/2000/svg" y="2.20843" fill="none" x="16.6085" height="2.78312" width="2.78312"/>
<g id="connector2terminal" xmlns="http://www.w3.org/2000/svg" y="2.47054" fill="none" x="16.9183" height="2.25658" width="2.15829"/>
<rect xmlns="http://www.w3.org/2000/svg" y="2.20843" x="16.6085" height="2.78312" width="2.78312"/>
<polygon xmlns="http://www.w3.org/2000/svg" points="15.5845,1.18445,16.6085,2.20843,19.3915,2.20843,20.4165,1.18445" fill="#2A2A29"/>
<polygon xmlns="http://www.w3.org/2000/svg" points="20.4165,1.18445,19.3915,2.20843,19.3915,4.99156,20.4165,6.01654" fill="#474747"/>
<polygon xmlns="http://www.w3.org/2000/svg" points="20.4165,6.01654,19.3915,4.99156,16.6085,4.99156,15.5845,6.01654" fill="#595959"/>
<polygon xmlns="http://www.w3.org/2000/svg" points="15.5845,6.01654,16.6085,4.99156,16.6085,2.20843,15.5845,1.18445" fill="#373737"/>
<rect id="connector3pin" xmlns="http://www.w3.org/2000/svg" y="2.20843" fill="none" x="23.8085" height="2.78312" width="2.78312"/>
<g id="connector3terminal" xmlns="http://www.w3.org/2000/svg" y="2.47054" fill="none" x="24.1183" height="2.25658" width="2.15829"/>
<rect xmlns="http://www.w3.org/2000/svg" y="2.20843" x="23.8085" height="2.78312" width="2.78312"/>
<polygon xmlns="http://www.w3.org/2000/svg" points="22.7845,1.18445,23.8085,2.20843,26.5915,2.20843,27.6165,1.18445" fill="#2A2A29"/>
<polygon xmlns="http://www.w3.org/2000/svg" points="27.6165,1.18445,26.5915,2.20843,26.5915,4.99156,27.6165,6.01654" fill="#474747"/>
<polygon xmlns="http://www.w3.org/2000/svg" points="27.6165,6.01654,26.5915,4.99156,23.8085,4.99156,22.7845,6.01654" fill="#595959"/>
<polygon xmlns="http://www.w3.org/2000/svg" points="22.7845,6.01654,23.8085,4.99156,23.8085,2.20843,22.7845,1.18445" fill="#373737"/>
</g>
</g></g><g partID='854117770'><line stroke-linecap='round' stroke='#999999' x1='124.264' y1='73.7583' x2='124.265' y2='124.158' stroke-width='3.2' /><line stroke-linecap='round' stroke='#ffffff' x1='124.264' y1='73.7583' x2='124.265' y2='124.158' stroke-width='1.6' /></g><g partID='854117880'><line stroke-linecap='round' stroke='#00a527' x1='131.464' y1='73.7583' x2='131.465' y2='124.158' stroke-width='3.2' /><line stroke-linecap='round' stroke='#25cc35' x1='131.464' y1='73.7583' x2='131.465' y2='124.158' stroke-width='1.6' /></g><g partID='854117990'><line stroke-linecap='round' stroke='#000000' x1='138.664' y1='73.7583' x2='138.665' y2='124.158' stroke-width='3.2' /><line stroke-linecap='round' stroke='#404040' x1='138.664' y1='73.7583' x2='138.665' y2='124.158' stroke-width='1.6' /></g><g partID='854118120'><line stroke-linecap='round' stroke='#000000' x1='124.265' y1='124.158' x2='124.265' y2='152.957' stroke-width='3.2' /><line stroke-linecap='round' stroke='#404040' x1='124.265' y1='124.158' x2='124.265' y2='152.957' stroke-width='1.6' /></g><g partID='854118270'><line stroke-linecap='round' stroke='#000000' x1='131.465' y1='124.158' x2='131.465' y2='152.958' stroke-width='3.2' /><line stroke-linecap='round' stroke='#404040' x1='131.465' y1='124.158' x2='131.465' y2='152.958' stroke-width='1.6' /></g><g partID='854118420'><line stroke-linecap='round' stroke='#000000' x1='138.665' y1='124.158' x2='138.667' y2='152.957' stroke-width='3.2' /><line stroke-linecap='round' stroke='#404040' x1='138.665' y1='124.158' x2='138.667' y2='152.957' stroke-width='1.6' /></g><g partID='854101880' id='partLabel'><g transform='translate(105.898,5.97786)' ><g font-size='9' font-style='normal' font-weight='normal' fill='#000000' font-family="'DroidSans'" id='breadboardLabel' fill-opacity='1' stroke='none' ><text x='0' y='6.75'>AMD-WRAITH</text><text x='0' y='15.75'>JST-3ZH-1.5mm-Header</text></g></g></g><g partID='854101850' id='partLabel'><g transform='translate(0,31.6193)' ><g font-size='9' font-style='normal' font-weight='normal' fill='#000000' font-family="'DroidSans'" id='breadboardLabel' fill-opacity='1' stroke='none' ><text x='0' y='6.75'>3 PIN PLUG</text><text x='0' y='15.75'>JST-3ZH-1.5mm-Connector</text></g></g></g><g partID='854114920' id='partLabel'><g transform='translate(161.158,148.54)' ><g font-size='9' font-style='normal' font-weight='normal' fill='#000000' font-family="'DroidSans'" id='breadboardLabel' fill-opacity='1' stroke='none' ><text x='0' y='6.75'>USB-MOBO</text><text x='0' y='15.75'>USB2 - 9 Pin Shrouded</text></g></g></g></svg>